<svg width="29" height="20" viewBox="0 0 29 20" fill="none" xmlns="http://www.w3.org/2000/svg">
<path d="M0.0397003 18.1087C0.194021 17.4212 0.467957 16.7789 0.746364 16.1371C1.54915 14.179 2.73732 12.5656 4.12018 11.1502C6.83652 8.36985 10.0414 6.33264 13.8813 5.43463C13.9605 5.41612 14.0396 5.39754 14.1188 5.37895C15.5241 5.04899 16.9316 4.71848 18.3978 4.79372C18.7101 4.80974 19.05 4.75008 19.045 4.32286C19.0401 3.89552 18.7367 3.79082 18.3694 3.7838C17.2749 3.76286 16.192 3.88425 15.1086 4.00569C14.8041 4.03983 14.4996 4.07396 14.1948 4.10495C13.9509 4.12973 13.7069 4.15984 13.4626 4.18998C12.4282 4.31758 11.3903 4.44562 10.3544 4.17131C9.15362 3.85338 8.33764 3.06565 7.84265 1.94517C7.62683 1.45662 7.91692 0.960171 8.4485 0.869265C8.59163 0.844791 8.73981 0.848037 8.88757 0.851274C8.93831 0.852386 8.989 0.853496 9.03941 0.853483C10.0063 0.853228 10.9732 0.851685 11.9402 0.850142C14.2843 0.8464 16.6284 0.842658 18.9724 0.857281C21.8623 0.875306 24.4108 1.83078 26.555 3.78514C27.1427 4.32079 27.5661 4.99999 27.8359 5.7476C28.239 6.86442 27.3148 7.98176 26.3299 7.88544C25.6383 7.81781 24.9386 7.83377 24.2389 7.84973C23.9278 7.85682 23.6166 7.86392 23.3062 7.86367C23.2874 7.86365 23.2687 7.86356 23.2499 7.86348C22.9624 7.86213 22.6752 7.86079 22.4565 8.12091C22.4481 8.38968 22.6323 8.47131 22.814 8.55183C22.8676 8.57555 22.9209 8.59918 22.969 8.62747C23.0299 8.66328 23.0908 8.69907 23.1517 8.73486C24.6362 9.60682 26.122 10.4796 27.3203 11.7457C27.8915 12.3492 28.2787 13.0524 28.1766 13.9273C28.1491 14.1631 28.105 14.4115 28.0017 14.6212C27.6899 15.2542 27.1392 15.3278 26.7014 14.7765C25.2822 12.9892 23.3223 12.1455 21.1686 11.8508C18.3438 11.4643 15.4961 11.5193 12.7035 12.2026C9.8658 12.897 7.17298 13.9653 4.73303 15.5945C3.50905 16.4118 2.47252 17.4509 1.54986 18.5965C0.983157 19.3 0.347145 19.3458 0.0574766 18.6822C-0.0272352 18.4881 -0.00512087 18.3084 0.0397003 18.1087Z" fill="url(#paint0_linear_13_293)"/>
<path d="M5.14129 5.19867C5.18463 5.22064 5.22797 5.24261 5.27159 5.26394C6.43484 6.00855 6.68605 7.47476 5.93045 8.66207C5.36297 9.55377 3.72084 9.87508 2.73343 9.28762C1.60079 8.61376 1.2359 7.2668 1.85093 6.02993C2.33859 5.04922 3.752 4.59355 4.85784 5.06292C4.95418 5.10381 5.04773 5.15124 5.14129 5.19867Z" fill="url(#paint1_linear_13_293)"/>
<defs>
<linearGradient id="paint0_linear_13_293" x1="-2.10054e-07" y1="9.99999" x2="28.193" y2="9.99999" gradientUnits="userSpaceOnUse">
<stop stop-color="#4A48FF"/>
<stop offset="1" stop-color="#2996FF"/>
</linearGradient>
<linearGradient id="paint1_linear_13_293" x1="-2.10054e-07" y1="9.99999" x2="28.193" y2="9.99999" gradientUnits="userSpaceOnUse">
<stop stop-color="#4A48FF"/>
<stop offset="1" stop-color="#2996FF"/>
</linearGradient>
</defs>
</svg>
