<svg width="12" height="20" viewBox="0 0 12 20" fill="none" xmlns="http://www.w3.org/2000/svg">
<path d="M4.33425 7.5V7.2364C4.33425 7.00628 4.14769 6.81973 3.91757 6.81973H1.61942C1.51327 6.81226 1.41137 6.77168 1.32597 6.70291C1.24057 6.63413 1.17532 6.54008 1.13806 6.43206C1.1008 6.32403 1.09311 6.20663 1.11592 6.09398C1.13873 5.98133 1.19107 5.87822 1.26665 5.79706L4.33425 2.42141C4.54858 2.18256 4.805 1.99271 5.08817 1.86308C5.37142 1.73346 5.67567 1.66666 5.98308 1.66666C6.2905 1.66666 6.59475 1.73346 6.87792 1.86308C7.16117 1.99271 7.4175 2.18256 7.63192 2.42141L10.8375 5.89683C10.9155 5.98106 10.9685 6.08862 10.9897 6.20573C11.0108 6.32284 10.9993 6.44414 10.9564 6.55406C10.9136 6.66397 10.8413 6.7575 10.7492 6.82261C10.6569 6.88773 10.5488 6.92147 10.4387 6.91951H9.19633C8.32975 6.91951 7.62425 6.79479 7.62425 7.82578V8.26636C7.62425 9.02925 7.10633 9.69466 6.36683 9.882L5.59933 10.0764C4.85983 10.2637 4.34192 10.9292 4.34192 11.6921V12.1742C4.34192 13.2135 3.63636 13.0805 2.76977 13.0805H1.55807C1.44807 13.0808 1.3406 13.1163 1.24909 13.1826C1.15759 13.2487 1.0861 13.3427 1.04356 13.4527C1.00102 13.5627 0.989307 13.6838 1.00988 13.801C1.03047 13.9182 1.08243 14.0262 1.15928 14.1115L4.33425 17.5786C4.54858 17.8174 4.805 18.0072 5.08817 18.1369C5.37142 18.2666 5.67567 18.3333 5.98308 18.3333C6.2905 18.3333 6.59475 18.2666 6.87792 18.1369C7.16117 18.0072 7.4175 17.8174 7.63192 17.5786L10.7532 14.2112C10.8333 14.128 10.8886 14.0205 10.9115 13.9027C10.9345 13.785 10.9242 13.6624 10.882 13.5511C10.8397 13.4397 10.7676 13.3448 10.6748 13.2787C10.5821 13.2126 10.4731 13.1782 10.3621 13.1802H8.04858C7.81842 13.1802 7.63192 12.9937 7.63192 12.7636V12.1742" stroke="#0A0B0D" stroke-width="1.5" stroke-linecap="round" stroke-linejoin="round"/>
</svg>
