<svg width="20" height="20" viewBox="0 0 20 20" fill="none" xmlns="http://www.w3.org/2000/svg">
<path d="M8.33425 7.5V7.2364C8.33425 7.00628 8.14769 6.81973 7.91757 6.81973H5.61942C5.51327 6.81226 5.41137 6.77168 5.32597 6.70291C5.24057 6.63413 5.17532 6.54008 5.13806 6.43206C5.1008 6.32403 5.09311 6.20663 5.11592 6.09398C5.13873 5.98133 5.19107 5.87823 5.26665 5.79707L8.33425 2.42141C8.54858 2.18257 8.805 1.99272 9.08817 1.86308C9.37142 1.73346 9.67567 1.66667 9.98308 1.66667C10.2905 1.66667 10.5947 1.73346 10.8779 1.86308C11.1612 1.99272 11.4175 2.18257 11.6319 2.42141L14.8375 5.89683C14.9155 5.98106 14.9685 6.08863 14.9897 6.20573C15.0108 6.32284 14.9993 6.44414 14.9564 6.55406C14.9136 6.66398 14.8413 6.7575 14.7492 6.82262C14.6569 6.88773 14.5488 6.92148 14.4387 6.91951H13.1963C12.3297 6.91951 11.6242 6.79479 11.6242 7.82578V8.26637C11.6242 9.02925 11.1063 9.69467 10.3668 9.882L9.59933 10.0764C8.85983 10.2638 8.34192 10.9293 8.34192 11.6921V12.1743C8.34192 13.2135 7.63636 13.0805 6.76977 13.0805H5.55807C5.44807 13.0808 5.3406 13.1163 5.24909 13.1826C5.15759 13.2488 5.0861 13.3428 5.04356 13.4528C5.00102 13.5627 4.98931 13.6838 5.00988 13.801C5.03047 13.9182 5.08243 14.0262 5.15928 14.1115L8.33425 17.5786C8.54858 17.8174 8.805 18.0073 9.08817 18.1369C9.37142 18.2666 9.67567 18.3333 9.98308 18.3333C10.2905 18.3333 10.5947 18.2666 10.8779 18.1369C11.1612 18.0073 11.4175 17.8174 11.6319 17.5786L14.7532 14.2113C14.8333 14.128 14.8886 14.0205 14.9115 13.9028C14.9345 13.785 14.9242 13.6624 14.882 13.5511C14.8397 13.4398 14.7676 13.3448 14.6748 13.2787C14.5821 13.2126 14.4731 13.1783 14.3621 13.1803H12.0486C11.8184 13.1803 11.6319 12.9938 11.6319 12.7636V12.1743" stroke="#FAFAFA" stroke-width="1.5" stroke-linecap="round" stroke-linejoin="round"/>
</svg>
