<svg width="40" height="40" viewBox="0 0 40 40" fill="none" xmlns="http://www.w3.org/2000/svg">
<g clip-path="url(#clip0_68_9507)">
<mask id="mask0_68_9507" style="mask-type:alpha" maskUnits="userSpaceOnUse" x="0" y="0" width="40" height="40">
<path d="M33.3159 0H6.68407C2.99256 0 0 2.99256 0 6.68407V33.3159C0 37.0074 2.99256 40 6.68407 40H33.3159C37.0074 40 40 37.0074 40 33.3159V6.68407C40 2.99256 37.0074 0 33.3159 0Z" fill="white"/>
</mask>
<g mask="url(#mask0_68_9507)">
<path d="M33.2637 0.0522461H6.73632C3.04481 0.0522461 0.0522461 3.04481 0.0522461 6.73632V33.2637C0.0522461 36.9552 3.04481 39.9478 6.73632 39.9478H33.2637C36.9552 39.9478 39.9478 36.9552 39.9478 33.2637V6.73632C39.9478 3.04481 36.9552 0.0522461 33.2637 0.0522461Z" stroke="#979797"/>
<path d="M0 0H40V40.1045H0V0Z" fill="url(#paint0_linear_68_9507)"/>
</g>
<path fill-rule="evenodd" clip-rule="evenodd" d="M6.27734 20.0075C6.27734 27.6727 12.4912 33.8865 20.1562 33.8865C27.8214 33.8865 34.0352 27.6727 34.0352 20.0075C34.0352 12.3425 27.8214 6.1286 20.1562 6.1286C12.4912 6.1286 6.27734 12.3425 6.27734 20.0075ZM16.6094 15.5354C16.0984 15.5354 15.6842 15.9497 15.6842 16.4607V23.5544C15.6842 24.0654 16.0984 24.4797 16.6094 24.4797H23.7031C24.2141 24.4797 24.6283 24.0654 24.6283 23.5544V16.4607C24.6283 15.9497 24.2141 15.5354 23.7031 15.5354H16.6094Z" fill="white"/>
</g>
<defs>
<linearGradient id="paint0_linear_68_9507" x1="20" y1="0" x2="20" y2="40.1045" gradientUnits="userSpaceOnUse">
<stop stop-color="#2E66F8"/>
<stop offset="1" stop-color="#124ADB"/>
</linearGradient>
<clipPath id="clip0_68_9507">
<rect width="40" height="40" fill="white"/>
</clipPath>
</defs>
</svg>
