<svg width="61" height="60" viewBox="0 0 61 60" fill="none" xmlns="http://www.w3.org/2000/svg">
<g clip-path="url(#clip0_488_153)">
<path d="M30.167 60C46.7355 60 60.167 46.5685 60.167 30C60.167 13.4315 46.7355 0 30.167 0C13.5984 0 0.166992 13.4315 0.166992 30C0.166992 46.5685 13.5984 60 30.167 60Z" fill="#FFD3A2"/>
<path fill-rule="evenodd" clip-rule="evenodd" d="M37.0105 41.6545L32.8128 42.7812V41.2995L32.4782 40.96H30.0752V42.6886V43.9078H32.6455L35.8089 42.5188L37.0105 41.6545Z" fill="#CDBDB2"/>
<path fill-rule="evenodd" clip-rule="evenodd" d="M23.3232 41.6545L27.4296 42.7812V41.2995L27.7794 40.96H30.1672V42.6886V43.9078H27.5969L24.4334 42.5188L23.3232 41.6545Z" fill="#CDBDB2"/>
<path fill-rule="evenodd" clip-rule="evenodd" d="M32.4791 38.4437L32.8137 41.299L32.3878 40.9594H27.9468L27.4297 41.299L27.7795 38.4437L28.4639 38.0116L31.8859 38.0888L32.4791 38.4437Z" fill="#393939"/>
<path fill-rule="evenodd" clip-rule="evenodd" d="M34.7909 19.0741L32.7377 23.9358L31.7948 38.0885H28.464L27.4298 23.9358L25.5439 19.0741H34.7909Z" fill="#F89C35"/>
<path fill-rule="evenodd" clip-rule="evenodd" d="M43.7643 29.7546L46.1673 36.7924L40.175 36.4374H36.3271V33.397L36.4944 27.1617L37.3613 27.8408L43.7643 29.7546Z" fill="#F89D35"/>
<path fill-rule="evenodd" clip-rule="evenodd" d="M39.23 30.5419L32.2188 30.7116L32.9944 34.354L36.3251 33.4897L39.23 30.5419Z" fill="#D87C30"/>
<path fill-rule="evenodd" clip-rule="evenodd" d="M39.2301 30.6188L36.3252 33.3968V36.1749L39.2301 30.6188Z" fill="#EA8D3A"/>
<path fill-rule="evenodd" clip-rule="evenodd" d="M36.3262 33.4893L32.9042 34.3535L31.7939 38.0885L32.5696 38.5207L36.3262 36.2673V33.4893Z" fill="#F89D35"/>
<path fill-rule="evenodd" clip-rule="evenodd" d="M36.3263 36.2678L37.0108 41.6542L32.4785 38.444L36.3263 36.2678Z" fill="#EB8F35"/>
<path fill-rule="evenodd" clip-rule="evenodd" d="M32.2223 30.7115L31.7969 38.0888L33.0731 34.323L32.2223 30.7115Z" fill="#EA8E3A"/>
<path fill-rule="evenodd" clip-rule="evenodd" d="M40.2663 36.3604L36.3271 36.2678L37.0115 41.6542L40.2663 36.3604Z" fill="#D87C30"/>
<path fill-rule="evenodd" clip-rule="evenodd" d="M44.2806 44.0001L37.0107 41.6542L40.2654 36.3604L46.1665 36.7925L44.2806 44.0001Z" fill="#EB8F35"/>
<path fill-rule="evenodd" clip-rule="evenodd" d="M32.7359 23.9362L36.4164 27.0692L39.23 30.5418L32.2188 30.8042L32.7359 23.9362Z" fill="#E8821E"/>
<path fill-rule="evenodd" clip-rule="evenodd" d="M37.0108 41.6541L32.4785 38.4438L32.8131 41.2219V42.7807L35.9005 42.1788L37.0108 41.6541Z" fill="#DFCEC3"/>
<path fill-rule="evenodd" clip-rule="evenodd" d="M23.3232 41.6541L27.7794 38.4438L27.4296 41.2219V42.7807L24.3574 42.1788L23.3232 41.6541Z" fill="#DFCEC3"/>
<path fill-rule="evenodd" clip-rule="evenodd" d="M34.107 32.2701L33.1641 34.2765L36.4948 33.3967L34.107 32.2701Z" fill="#393939"/>
<path fill-rule="evenodd" clip-rule="evenodd" d="M44.3742 15L32.7393 23.9361L34.7013 19.0745L44.3742 15Z" fill="#E88F35"/>
<path fill-rule="evenodd" clip-rule="evenodd" d="M44.3725 15L45.9086 19.769L45.0569 24.9856L45.65 25.3252L44.7983 26.1123L45.4827 26.7142L44.5398 27.5785L45.1329 28.1032L43.7641 29.8318L37.3459 27.8409C34.2129 25.2943 32.6616 23.9979 32.7224 23.9361C32.7833 23.8744 36.6767 20.8957 44.3725 15Z" fill="#8E5A30"/>
<path fill-rule="evenodd" clip-rule="evenodd" d="M16.57 29.7546L14.167 36.7924L20.1593 36.4374H24.0072V33.397L23.8399 27.1617L22.9882 27.8408L16.57 29.7546Z" fill="#F89D35"/>
<path fill-rule="evenodd" clip-rule="evenodd" d="M21.1035 30.5419L28.1148 30.7116L27.3544 34.354L24.0084 33.4897L21.1035 30.5419Z" fill="#D87C30"/>
<path fill-rule="evenodd" clip-rule="evenodd" d="M21.1035 30.6188L24.0084 33.3968V36.1749L21.1035 30.6188Z" fill="#EA8D3A"/>
<path fill-rule="evenodd" clip-rule="evenodd" d="M24.0078 33.4893L27.4298 34.3535L28.5401 38.0885L27.7796 38.5207L24.0078 36.2673V33.4893Z" fill="#F89D35"/>
<path fill-rule="evenodd" clip-rule="evenodd" d="M24.0077 36.2678L23.3232 41.6542L27.7795 38.5211L24.0077 36.2678Z" fill="#EB8F35"/>
<path fill-rule="evenodd" clip-rule="evenodd" d="M28.1126 30.7115L28.538 38.0888L27.2617 34.323L28.1126 30.7115Z" fill="#EA8E3A"/>
<path fill-rule="evenodd" clip-rule="evenodd" d="M20.0693 36.3604L24.0085 36.2678L23.3241 41.6542L20.0693 36.3604Z" fill="#D87C30"/>
<path fill-rule="evenodd" clip-rule="evenodd" d="M16.0529 44.0001L23.3228 41.6542L20.0681 36.3604L14.167 36.7925L16.0529 44.0001Z" fill="#EB8F35"/>
<path fill-rule="evenodd" clip-rule="evenodd" d="M27.5977 23.9362L23.9172 27.0692L21.1035 30.5418L28.1148 30.8042L27.5977 23.9362Z" fill="#E8821E"/>
<path fill-rule="evenodd" clip-rule="evenodd" d="M26.2276 32.2701L27.1705 34.2765L23.8398 33.3967L26.2276 32.2701Z" fill="#393939"/>
<path fill-rule="evenodd" clip-rule="evenodd" d="M15.9629 15L27.5977 23.9361L25.6357 19.0745L15.9629 15Z" fill="#E88F35"/>
<path fill-rule="evenodd" clip-rule="evenodd" d="M15.9619 15L14.4258 19.769L15.2775 24.9856L14.6844 25.3252L15.5361 26.1123L14.8517 26.7142L15.7946 27.5785L15.2015 28.1032L16.5703 29.8318L22.9885 27.8409C26.1215 25.2943 27.6728 23.9979 27.612 23.9361C27.5511 23.8744 23.6729 20.8957 15.9619 15Z" fill="#8E5A30"/>
</g>
<defs>
<clipPath id="clip0_488_153">
<rect width="60" height="60" fill="white" transform="translate(0.166992)"/>
</clipPath>
</defs>
</svg>
