<svg width="40" height="36" viewBox="0 0 40 36" fill="none" xmlns="http://www.w3.org/2000/svg">
<g clip-path="url(#clip0_68_9470)">
<path fill-rule="evenodd" clip-rule="evenodd" d="M11.4482 32.8661L16.688 34.2575V32.4379L17.1157 32.0098H20.1099V34.1505V35.649H16.9019L12.9453 33.9364L11.4482 32.8661Z" fill="#CDBDB2"/>
<path fill-rule="evenodd" clip-rule="evenodd" d="M28.5577 32.8661L23.4248 34.2575V32.4379L22.9971 32.0098H20.0029V34.1505V35.649H23.211L27.1675 33.9364L28.5577 32.8661Z" fill="#CDBDB2"/>
<path fill-rule="evenodd" clip-rule="evenodd" d="M17.1157 28.9058L16.688 32.4379L17.2226 32.0098H22.7832L23.4248 32.4379L22.9971 28.9058L22.1416 28.3706L17.8642 28.4776L17.1157 28.9058Z" fill="#393939"/>
<path fill-rule="evenodd" clip-rule="evenodd" d="M14.2285 5.03693L16.7949 11.0309L17.9712 28.4776H22.1416L23.4248 11.0309L25.7774 5.03693H14.2285Z" fill="#F89C35"/>
<path fill-rule="evenodd" clip-rule="evenodd" d="M3.0005 18.2022L0.00634766 26.8721L7.49173 26.4439H12.3038V22.6977L12.0899 14.9912L11.0206 15.8475L3.0005 18.2022Z" fill="#F89D35"/>
<path fill-rule="evenodd" clip-rule="evenodd" d="M8.66797 19.1656L17.4365 19.3796L16.4741 23.8751L12.3037 22.8048L8.66797 19.1656Z" fill="#D87C30"/>
<path fill-rule="evenodd" clip-rule="evenodd" d="M8.66797 19.2726L12.3037 22.6977V26.1228L8.66797 19.2726Z" fill="#EA8D3A"/>
<path fill-rule="evenodd" clip-rule="evenodd" d="M12.3037 22.8047L16.5811 23.8751L17.9712 28.4776L17.0088 29.0128L12.3037 26.2299V22.8047Z" fill="#F89D35"/>
<path fill-rule="evenodd" clip-rule="evenodd" d="M12.3037 26.2299L11.4482 32.8661L17.1157 28.9058L12.3037 26.2299Z" fill="#EB8F35"/>
<path fill-rule="evenodd" clip-rule="evenodd" d="M17.4365 19.3796L17.9712 28.4776L16.3672 23.8216L17.4365 19.3796Z" fill="#EA8E3A"/>
<path fill-rule="evenodd" clip-rule="evenodd" d="M7.38477 26.3369L12.3037 26.2299L11.4482 32.8661L7.38477 26.3369Z" fill="#D87C30"/>
<path fill-rule="evenodd" clip-rule="evenodd" d="M2.35889 35.756L11.4483 32.8661L7.38479 26.3369L0.00634766 26.8721L2.35889 35.756Z" fill="#EB8F35"/>
<path fill-rule="evenodd" clip-rule="evenodd" d="M16.7949 11.0309L12.1968 14.8842L8.66797 19.1656L17.4365 19.4867L16.7949 11.0309Z" fill="#E8821E"/>
<path fill-rule="evenodd" clip-rule="evenodd" d="M11.4482 32.8661L17.1157 28.9058L16.688 32.3309V34.2575L12.8384 33.5083L11.4482 32.8661Z" fill="#DFCEC3"/>
<path fill-rule="evenodd" clip-rule="evenodd" d="M28.5577 32.8661L22.9971 28.9058L23.4248 32.3309V34.2575L27.2745 33.5083L28.5577 32.8661Z" fill="#DFCEC3"/>
<path fill-rule="evenodd" clip-rule="evenodd" d="M15.084 21.3063L16.2602 23.7681L12.0898 22.6977L15.084 21.3063Z" fill="#393939"/>
<path fill-rule="evenodd" clip-rule="evenodd" d="M2.25195 0.00628662L16.795 11.0309L14.3355 5.03693L2.25195 0.00628662Z" fill="#E88F35"/>
<path fill-rule="evenodd" clip-rule="evenodd" d="M2.25196 0.00628662L0.327148 5.89321L1.39649 12.3153L0.647951 12.7435L1.71729 13.7068L0.861819 14.456L2.03809 15.5264L1.28955 16.1686L3.0005 18.3093L11.0206 15.8475C14.9415 12.7078 16.8663 11.1022 16.795 11.0309C16.7237 10.9595 11.876 7.28467 2.25196 0.00628662Z" fill="#8E5A30"/>
<path fill-rule="evenodd" clip-rule="evenodd" d="M37.0054 18.2022L39.9995 26.8721L32.5141 26.4439H27.7021V22.6977L27.9159 14.9912L28.9853 15.8475L37.0054 18.2022Z" fill="#F89D35"/>
<path fill-rule="evenodd" clip-rule="evenodd" d="M31.3379 19.1656L22.5693 19.3796L23.5317 23.8751L27.7022 22.8048L31.3379 19.1656Z" fill="#D87C30"/>
<path fill-rule="evenodd" clip-rule="evenodd" d="M31.3378 19.2726L27.7021 22.6977V26.1228L31.3378 19.2726Z" fill="#EA8D3A"/>
<path fill-rule="evenodd" clip-rule="evenodd" d="M27.7022 22.8047L23.4248 23.8751L22.0347 28.4776L22.9971 29.0128L27.7022 26.2299V22.8047Z" fill="#F89D35"/>
<path fill-rule="evenodd" clip-rule="evenodd" d="M27.7022 26.2299L28.5577 32.8661L22.9971 29.0128L27.7022 26.2299Z" fill="#EB8F35"/>
<path fill-rule="evenodd" clip-rule="evenodd" d="M22.5694 19.3796L22.0347 28.4776L23.6387 23.8216L22.5694 19.3796Z" fill="#EA8E3A"/>
<path fill-rule="evenodd" clip-rule="evenodd" d="M32.621 26.3369L27.7021 26.2299L28.5576 32.8661L32.621 26.3369Z" fill="#D87C30"/>
<path fill-rule="evenodd" clip-rule="evenodd" d="M37.6471 35.756L28.5576 32.8661L32.6211 26.3369L39.9996 26.8721L37.6471 35.756Z" fill="#EB8F35"/>
<path fill-rule="evenodd" clip-rule="evenodd" d="M23.2109 11.0309L27.8091 14.8842L31.3379 19.1656L22.5693 19.4867L23.2109 11.0309Z" fill="#E8821E"/>
<path fill-rule="evenodd" clip-rule="evenodd" d="M24.9219 21.3063L23.7456 23.7681L27.9161 22.6977L24.9219 21.3063Z" fill="#393939"/>
<path fill-rule="evenodd" clip-rule="evenodd" d="M37.7539 0.00628662L23.2109 11.0309L25.6704 5.03693L37.7539 0.00628662Z" fill="#E88F35"/>
<path fill-rule="evenodd" clip-rule="evenodd" d="M37.7539 0.00628662L39.6787 5.89321L38.6094 12.3153L39.3579 12.7435L38.2886 13.7068L39.1441 14.456L37.9678 15.5264L38.7163 16.1686L37.0054 18.3093L28.9854 15.8475C25.0644 12.7078 23.1396 11.1022 23.2109 11.0309C23.2822 10.9595 28.1299 7.28467 37.7539 0.00628662Z" fill="#8E5A30"/>
</g>
<defs>
<clipPath id="clip0_68_9470">
<rect width="40" height="36" fill="white"/>
</clipPath>
</defs>
</svg>
