<svg width="20" height="20" viewBox="0 0 20 20" fill="none" xmlns="http://www.w3.org/2000/svg">
<path d="M12.3329 13.8889H16.2218L15.1291 12.7962C14.8327 12.4998 14.6662 12.0979 14.6662 11.6788V9.22223C14.6662 7.19033 13.3676 5.46174 11.5551 4.8211V4.55556C11.5551 3.69645 10.8587 3 9.99957 3C9.14046 3 8.44401 3.69645 8.44401 4.55556V4.8211C6.63149 5.46174 5.3329 7.19033 5.3329 9.22223V11.6788C5.3329 12.0979 5.16641 12.4998 4.87007 12.7962L3.77734 13.8889H7.66623M12.3329 13.8889V14.6667C12.3329 15.9553 11.2882 17 9.99957 17C8.7109 17 7.66623 15.9553 7.66623 14.6667V13.8889M12.3329 13.8889H7.66623" stroke="#171717" stroke-width="1.67" stroke-linecap="round" stroke-linejoin="round"/>
</svg>
