<svg width="20" height="20" viewBox="0 0 20 20" fill="none" xmlns="http://www.w3.org/2000/svg">
<g clip-path="url(#clip0_89_8693)">
<path d="M11.8837 12.9167C11.8837 15.5667 9.73367 17.7167 7.08369 17.7167C4.43369 17.7167 2.28369 15.5667 2.28369 12.9167C2.28369 10.2667 4.43369 8.11665 7.08369 8.11665C7.20869 8.11665 7.32536 8.11665 7.45036 8.13332C9.80867 8.30832 11.692 10.1917 11.867 12.55C11.867 12.675 11.8837 12.7917 11.8837 12.9167Z" stroke="#0A0B0D" stroke-width="1.5" stroke-linecap="round" stroke-linejoin="round"/>
<path d="M12.7331 11.9252C12.7998 11.9252 12.8581 11.9252 12.9164 11.9252C15.5998 11.9252 17.7664 9.7585 17.7664 7.07513C17.7664 6.9418 17.7664 6.83346 17.7498 6.70013C17.5664 4.32513 15.6664 2.4168 13.2831 2.23346C13.1498 2.23346 13.0414 2.2168 12.9081 2.2168C10.2248 2.2168 8.05811 4.38346 8.05811 7.0668C8.05811 7.13346 8.05811 7.1918 8.05811 7.25013" stroke="#0A0B0D" stroke-width="1.5" stroke-linecap="round" stroke-linejoin="round"/>
<path d="M1.4585 6.04166C1.4585 3.50833 3.5085 1.45833 6.04183 1.45833C5.7835 1.79999 5.5085 2.20833 5.25016 2.69166C5.04183 3.075 4.87516 3.44166 4.75016 3.76666" stroke="#0A0B0D" stroke-width="1.5" stroke-linecap="round" stroke-linejoin="round"/>
<path d="M18.5418 13.9583C18.5418 16.4917 16.4918 18.5417 13.9585 18.5417C14.2168 18.2 14.4918 17.7917 14.7502 17.3083C14.9585 16.925 15.1252 16.5583 15.2502 16.2333" stroke="#0A0B0D" stroke-width="1.5" stroke-linecap="round" stroke-linejoin="round"/>
</g>
<defs>
<clipPath id="clip0_89_8693">
<rect width="20" height="20" fill="white"/>
</clipPath>
</defs>
</svg>
