<svg width="20" height="20" viewBox="0 0 20 20" fill="none" xmlns="http://www.w3.org/2000/svg">
<path fill-rule="evenodd" clip-rule="evenodd" d="M4 0C1.79086 0 0 1.79086 0 4V6V16C0 18.2091 1.79086 20 4 20H16C18.2091 20 20 18.2091 20 16V8C20 5.79086 18.2091 4 16 4C16 1.79086 14.2091 0 12 0H4ZM14 4H2C2 2.89543 2.89543 2 4 2H12C13.1046 2 14 2.89543 14 4ZM2 16V6H16C17.1046 6 18 6.89543 18 8V16C18 17.1046 17.1046 18 16 18H4C2.89543 18 2 17.1046 2 16ZM12 11C11.4477 11 11 11.4477 11 12C11 12.5523 11.4477 13 12 13H15C15.5523 13 16 12.5523 16 12C16 11.4477 15.5523 11 15 11H12Z" fill="#525252"/>
</svg>