<svg width="40" height="40" viewBox="0 0 40 40" fill="none" xmlns="http://www.w3.org/2000/svg">
<g clip-path="url(#clip0_68_9538)">
<path fill-rule="evenodd" clip-rule="evenodd" d="M20 0C31.0457 0 40 8.9543 40 20C40 31.0457 31.0457 40 20 40C8.9543 40 0 31.0457 0 20C0 8.9543 8.9543 0 20 0Z" fill="url(#paint0_radial_68_9538)"/>
<path d="M12.7103 15.446C16.7363 11.518 23.2637 11.518 27.2897 15.446L27.7743 15.9187C27.9756 16.1151 27.9756 16.4336 27.7743 16.63L26.1168 18.2471C26.0161 18.3453 25.8529 18.3453 25.7523 18.2471L25.0855 17.5966C22.2769 14.8563 17.7232 14.8563 14.9145 17.5966L14.2005 18.2933C14.0998 18.3915 13.9366 18.3915 13.836 18.2933L12.1785 16.6761C11.9772 16.4797 11.9772 16.1613 12.1785 15.9649L12.7103 15.446ZM30.7176 18.7904L32.1928 20.2297C32.3941 20.4261 32.3941 20.7445 32.1928 20.9409L25.5411 27.4308C25.3398 27.6272 25.0134 27.6272 24.8121 27.4308L20.0912 22.8248C20.0408 22.7757 19.9592 22.7757 19.9089 22.8248L15.1881 27.4308C14.9868 27.6272 14.6604 27.6272 14.4591 27.4308L7.80722 20.9409C7.60593 20.7445 7.60593 20.426 7.80722 20.2296L9.28241 18.7904C9.48371 18.594 9.81008 18.594 10.0114 18.7904L14.7324 23.3965C14.7827 23.4456 14.8643 23.4456 14.9146 23.3965L19.6354 18.7904C19.8367 18.594 20.1631 18.594 20.3644 18.7903C20.3644 18.7904 20.3644 18.7904 20.3644 18.7904L25.0854 23.3965C25.1358 23.4456 25.2174 23.4456 25.2677 23.3965L29.9886 18.7904C30.1899 18.594 30.5163 18.594 30.7176 18.7904Z" fill="white"/>
</g>
<defs>
<radialGradient id="paint0_radial_68_9538" cx="0" cy="0" r="1" gradientUnits="userSpaceOnUse" gradientTransform="translate(0 20) scale(40)">
<stop stop-color="#5D9DF6"/>
<stop offset="1" stop-color="#006FFF"/>
</radialGradient>
<clipPath id="clip0_68_9538">
<rect width="40" height="40" fill="white"/>
</clipPath>
</defs>
</svg>
