<svg width="20" height="20" viewBox="0 0 20 20" fill="none" xmlns="http://www.w3.org/2000/svg">
<path d="M9.53834 3.10996C9.70914 2.69932 10.2909 2.69932 10.4617 3.10996L12.2632 7.4415C12.3353 7.61462 12.4981 7.7329 12.685 7.74789L17.3612 8.12278C17.8045 8.15832 17.9843 8.71158 17.6465 9.00091L14.0837 12.0528C13.9413 12.1748 13.8791 12.3662 13.9226 12.5486L15.0111 17.1118C15.1143 17.5444 14.6437 17.8864 14.2642 17.6545L10.2606 15.2092C10.1006 15.1115 9.89938 15.1115 9.73937 15.2092L5.73584 17.6545C5.35629 17.8864 4.88567 17.5444 4.98886 17.1118L6.07736 12.5486C6.12086 12.3662 6.05868 12.1748 5.91628 12.0528L2.35347 9.00091C2.0157 8.71157 2.19546 8.15832 2.63879 8.12278L7.31505 7.74789C7.50194 7.7329 7.66475 7.61462 7.73675 7.4415L9.53834 3.10996Z" stroke="#171717" stroke-width="1.67"/>
</svg>
