<svg width="25" height="25" viewBox="0 0 25 25" fill="none" xmlns="http://www.w3.org/2000/svg">
<path d="M12.1153 24.5972C8.93514 24.5952 5.8857 23.3317 3.63602 21.084C1.38632 18.8364 0.120123 15.7881 0.115234 12.608C0.120122 9.42774 1.38625 6.37927 3.63591 4.13136C5.88554 1.88344 8.93499 0.619628 12.1153 0.617188C15.2955 0.619628 18.3449 1.88344 20.5946 4.13136C22.8442 6.37927 24.1104 9.42774 24.1152 12.608C24.1104 15.7881 22.8442 18.8364 20.5944 21.084C18.3448 23.3317 15.2954 24.5952 12.1153 24.5972ZM12.1153 1.54027C9.17968 1.5423 6.3648 2.70873 4.28817 4.78362C2.21154 6.85852 1.04279 9.67242 1.03831 12.608C1.04117 15.5439 2.20946 18.3586 4.28647 20.4336C6.36351 22.5087 9.17933 23.6742 12.1153 23.6742C15.0512 23.6742 17.867 22.5087 19.944 20.4336C22.021 18.3586 23.1894 15.5439 23.1922 12.608C23.1877 9.67242 22.0189 6.85852 19.9424 4.78362C17.8657 2.70873 15.0508 1.5423 12.1153 1.54027Z" fill="black"/>
<path d="M13.6329 22.7003C10.9982 22.6983 8.47191 21.6511 6.60816 19.7889C4.74443 17.9266 3.69547 15.4011 3.69141 12.7664C3.69547 10.1317 4.74443 7.60616 6.60816 5.74385C8.47191 3.88156 10.9982 2.83455 13.6329 2.83252C16.2676 2.83455 18.794 3.88156 20.6577 5.74385C22.5214 7.60616 23.5704 10.1317 23.5744 12.7664C23.5704 15.4011 22.5214 17.9266 20.6577 19.7889C18.794 21.6511 16.2676 22.6983 13.6329 22.7003ZM13.6329 3.54944C11.1885 3.55147 8.84469 4.52301 7.11565 6.2509C5.3866 7.97878 4.41351 10.322 4.40986 12.7664C4.41392 15.2105 5.38721 17.5533 7.11621 19.2809C8.84522 21.0085 11.1888 21.9798 13.6329 21.9818C16.0771 21.9798 18.4206 21.0085 20.1496 19.2809C21.8788 17.5533 22.8519 15.2105 22.8561 12.7664C22.8519 10.3222 21.8788 7.97943 20.1496 6.25187C18.4206 4.52432 16.0771 3.55302 13.6329 3.55099V3.54944Z" fill="black"/>
<path d="M15.1487 20.8049C13.0596 20.8032 11.0564 19.973 9.57851 18.4964C8.10068 17.0197 7.26889 15.0171 7.26562 12.928C7.26889 10.8388 8.10068 8.83623 9.57851 7.35955C11.0564 5.88287 13.0596 5.05265 15.1487 5.05103C17.238 5.05224 19.2414 5.88233 20.7194 7.35911C22.1972 8.83586 23.0289 10.8387 23.0317 12.928C23.0286 15.0171 22.1967 17.0197 20.7188 18.4964C19.241 19.973 17.2379 20.8032 15.1487 20.8049ZM15.1487 5.56333C13.1953 5.56455 11.3221 6.34066 9.9403 7.72134C8.55843 9.10204 7.78076 10.9745 7.77791 12.928C7.78116 14.8811 8.55904 16.7532 9.94085 18.1336C11.3227 19.5139 13.1956 20.2898 15.1487 20.2911C17.1019 20.2898 18.9748 19.5139 20.3566 18.1336C21.7385 16.7532 22.5163 14.8811 22.5196 12.928C22.5166 10.9745 21.739 9.10204 20.3572 7.72134C18.9753 6.34066 17.1021 5.56455 15.1487 5.56333Z" fill="black"/>
<path d="M16.6664 18.9079C15.1228 18.9067 13.6427 18.2933 12.5507 17.2022C11.4588 16.1111 10.8442 14.6315 10.8418 13.0879C10.8438 11.544 11.4582 10.064 12.5502 8.97261C13.6422 7.88122 15.1225 7.26758 16.6664 7.26636C18.2103 7.26758 19.6907 7.88122 20.7827 8.97261C21.8747 10.064 22.4889 11.544 22.4909 13.0879C22.4885 14.6315 21.8739 16.1111 20.7821 17.2022C19.6901 18.2933 18.21 18.9067 16.6664 18.9079ZM16.6664 7.57406C15.2041 7.57527 13.8021 8.15648 12.7678 9.19018C11.7335 10.2239 11.1515 11.6256 11.1495 13.0879C11.1519 14.5499 11.7341 15.9513 12.7683 16.9846C13.8026 18.018 15.2044 18.599 16.6664 18.6002C18.1284 18.599 19.5302 18.018 20.5645 16.9846C21.5987 15.9513 22.1809 14.5499 22.1833 13.0879C22.1813 11.6256 21.5994 10.2239 20.565 9.19018C19.5308 8.15648 18.1287 7.57527 16.6664 7.57406Z" fill="black"/>
</svg>
