<svg width="153" height="20" viewBox="0 0 153 20" fill="none" xmlns="http://www.w3.org/2000/svg">
<path d="M0.0397003 18.1087C0.194021 17.4212 0.467957 16.7789 0.746364 16.1371C1.54915 14.179 2.73732 12.5656 4.12018 11.1502C6.83652 8.36985 10.0414 6.33264 13.8813 5.43463C13.9605 5.41612 14.0396 5.39754 14.1188 5.37895C15.5241 5.04899 16.9316 4.71848 18.3978 4.79372C18.7101 4.80974 19.05 4.75008 19.045 4.32286C19.0401 3.89552 18.7367 3.79082 18.3694 3.7838C17.2749 3.76286 16.192 3.88425 15.1086 4.00569C14.8041 4.03983 14.4996 4.07396 14.1948 4.10495C13.9509 4.12973 13.7069 4.15984 13.4626 4.18998C12.4282 4.31758 11.3903 4.44562 10.3544 4.17131C9.15362 3.85338 8.33764 3.06565 7.84265 1.94517C7.62683 1.45662 7.91692 0.960171 8.4485 0.869265C8.59163 0.844791 8.73981 0.848037 8.88757 0.851274C8.93831 0.852386 8.989 0.853496 9.03941 0.853483C10.0063 0.853228 10.9732 0.851685 11.9402 0.850142C14.2843 0.8464 16.6284 0.842658 18.9724 0.857281C21.8623 0.875306 24.4108 1.83078 26.555 3.78514C27.1427 4.32079 27.5661 4.99999 27.8359 5.7476C28.239 6.86442 27.3148 7.98176 26.3299 7.88544C25.6383 7.81781 24.9386 7.83377 24.2389 7.84973C23.9278 7.85682 23.6166 7.86392 23.3062 7.86367C23.2874 7.86365 23.2687 7.86356 23.2499 7.86348C22.9624 7.86213 22.6752 7.86079 22.4565 8.12091C22.4481 8.38968 22.6323 8.47131 22.814 8.55183C22.8676 8.57555 22.9209 8.59918 22.969 8.62747C23.0299 8.66328 23.0908 8.69907 23.1517 8.73486C24.6362 9.60682 26.122 10.4796 27.3203 11.7457C27.8915 12.3492 28.2787 13.0524 28.1766 13.9273C28.1491 14.1631 28.105 14.4115 28.0017 14.6212C27.6899 15.2542 27.1392 15.3278 26.7014 14.7765C25.2822 12.9892 23.3223 12.1455 21.1686 11.8508C18.3438 11.4643 15.4961 11.5193 12.7035 12.2026C9.8658 12.897 7.17298 13.9653 4.73303 15.5945C3.50905 16.4118 2.47252 17.4509 1.54986 18.5965C0.983157 19.3 0.347145 19.3458 0.0574766 18.6822C-0.0272352 18.4881 -0.00512087 18.3084 0.0397003 18.1087Z" fill="url(#paint0_linear_470_8241)"/>
<path d="M5.14129 5.19867C5.18463 5.22064 5.22797 5.24261 5.27159 5.26394C6.43484 6.00855 6.68605 7.47476 5.93045 8.66207C5.36297 9.55377 3.72084 9.87508 2.73343 9.28762C1.60079 8.61376 1.2359 7.2668 1.85093 6.02993C2.33859 5.04922 3.752 4.59355 4.85784 5.06292C4.95418 5.10381 5.04773 5.15124 5.14129 5.19867Z" fill="url(#paint1_linear_470_8241)"/>
<path d="M47.4927 10.2655C47.3937 11.1237 47.0911 11.8553 46.585 12.4604C46.0789 13.0656 45.3913 13.5276 44.5221 13.8467C43.653 14.1658 42.6188 14.3253 41.4195 14.3253C40.4183 14.3253 39.4997 14.2098 38.6635 13.9787C37.8383 13.7477 37.1232 13.4011 36.5181 12.939C35.924 12.4769 35.4619 11.9048 35.1318 11.2227C34.8018 10.5296 34.6367 9.7209 34.6367 8.79672C34.6367 7.87254 34.8018 7.06389 35.1318 6.37075C35.4619 5.67762 35.924 5.10001 36.5181 4.63792C37.1232 4.16483 37.8383 3.81276 38.6635 3.58171C39.4997 3.33967 40.4183 3.21864 41.4195 3.21864C42.6188 3.21864 43.653 3.38367 44.5221 3.71374C45.4023 4.0438 46.0954 4.51689 46.6015 5.13301C47.1076 5.73813 47.4047 6.47527 47.4927 7.34444H45.3143C45.1713 6.88235 44.9292 6.48628 44.5881 6.15621C44.2581 5.81515 43.829 5.5566 43.3009 5.38056C42.7728 5.20453 42.1457 5.11651 41.4195 5.11651C40.5174 5.11651 39.7252 5.25954 39.0431 5.54559C38.3609 5.82065 37.8328 6.23323 37.4588 6.78333C37.0847 7.32244 36.8977 7.99357 36.8977 8.79672C36.8977 9.58888 37.0847 10.2545 37.4588 10.7936C37.8328 11.3327 38.3609 11.7453 39.0431 12.0314C39.7252 12.3064 40.5174 12.4439 41.4195 12.4439C42.1457 12.4439 42.7673 12.3559 43.2844 12.1799C43.8125 12.0038 44.2416 11.7508 44.5716 11.4207C44.9127 11.0907 45.1603 10.7056 45.3143 10.2655H47.4927Z" fill="#404040"/>
<path d="M56.5986 14.1108V9.60538C56.5986 9.15429 56.5216 8.78022 56.3676 8.48316C56.2135 8.18611 55.966 7.96056 55.6249 7.80653C55.2949 7.6525 54.8493 7.57549 54.2882 7.57549C53.7491 7.57549 53.2595 7.68001 52.8194 7.88905C52.3793 8.08709 52.0217 8.35114 51.7467 8.6812C51.4716 9.00026 51.3176 9.34133 51.2846 9.7044L51.2681 8.79672C51.3231 8.43365 51.4496 8.07058 51.6476 7.70751C51.8457 7.34444 52.1097 7.01438 52.4398 6.71732C52.7699 6.42026 53.1659 6.18372 53.628 6.00768C54.1011 5.82065 54.6292 5.72713 55.2123 5.72713C55.7184 5.72713 56.186 5.79314 56.6151 5.92517C57.0442 6.04619 57.4183 6.23873 57.7373 6.50278C58.0564 6.76683 58.3039 7.09689 58.48 7.49297C58.656 7.87805 58.744 8.33463 58.744 8.86274V14.1108H56.5986ZM49.2547 14.1108V2.60802H51.4001V14.1108H49.2547Z" fill="#404040"/>
<path d="M64.4401 14.2923C63.6259 14.2923 62.8833 14.1163 62.2121 13.7642C61.552 13.4011 61.0239 12.9005 60.6278 12.2624C60.2428 11.6133 60.0502 10.8651 60.0502 10.018C60.0502 9.14879 60.2483 8.39515 60.6443 7.75702C61.0404 7.1189 61.574 6.6238 62.2452 6.27173C62.9273 5.90866 63.6974 5.72713 64.5556 5.72713C65.5018 5.72713 66.2609 5.91967 66.833 6.30474C67.4162 6.67881 67.8397 7.19041 68.1038 7.83954C68.3678 8.48866 68.4999 9.2148 68.4999 10.018C68.4999 10.5021 68.4228 10.9972 68.2688 11.5032C68.1148 11.9983 67.8782 12.4604 67.5592 12.8895C67.2401 13.3076 66.822 13.6487 66.3049 13.9127C65.7878 14.1658 65.1662 14.2923 64.4401 14.2923ZM65.1332 12.642C65.7823 12.642 66.3434 12.5319 66.8165 12.3119C67.2896 12.0919 67.6527 11.7838 67.9057 11.3877C68.1588 10.9916 68.2853 10.5351 68.2853 10.018C68.2853 9.45685 68.1533 8.98376 67.8892 8.59868C67.6362 8.20261 67.2731 7.90555 66.8 7.70751C66.3379 7.49847 65.7823 7.39395 65.1332 7.39395C64.22 7.39395 63.5104 7.636 63.0043 8.12009C62.4982 8.59318 62.2452 9.22581 62.2452 10.018C62.2452 10.5461 62.3662 11.0082 62.6082 11.4042C62.8503 11.7893 63.1858 12.0919 63.6149 12.3119C64.055 12.5319 64.5611 12.642 65.1332 12.642ZM68.2853 5.90866H70.4307V14.1108H68.4338C68.4338 14.1108 68.4174 14.0062 68.3843 13.7972C68.3623 13.5772 68.3403 13.3021 68.3183 12.972C68.2963 12.642 68.2853 12.3174 68.2853 11.9983V5.90866Z" fill="#404040"/>
<path d="M74.5839 2.31097V4.19233H72.0919V2.31097H74.5839ZM72.2569 5.90866H74.4023V14.1108H72.2569V5.90866Z" fill="#404040"/>
<path d="M76.2932 5.90866H78.4387V14.1108H76.2932V5.90866ZM82.2509 5.72713C82.757 5.72713 83.2246 5.79314 83.6537 5.92517C84.0828 6.05719 84.4568 6.26073 84.7759 6.53579C85.095 6.81084 85.3425 7.16291 85.5185 7.59199C85.6946 8.01007 85.7826 8.51067 85.7826 9.09378V14.1108H83.6372V9.47335C83.6372 8.78022 83.4666 8.27412 83.1256 7.95506C82.7955 7.625 82.2509 7.45996 81.4917 7.45996C80.9196 7.45996 80.4025 7.56999 79.9404 7.79003C79.4784 8.01007 79.1043 8.29063 78.8182 8.63169C78.5322 8.96176 78.3671 9.30832 78.3231 9.67139L78.3066 8.82973C78.3616 8.44466 78.4882 8.07058 78.6862 7.70751C78.8842 7.34444 79.1483 7.01438 79.4784 6.71732C79.8194 6.40926 80.221 6.16721 80.6831 5.99118C81.1452 5.81515 81.6678 5.72713 82.2509 5.72713Z" fill="#404040"/>
<path d="M89.6998 7.83954H98.1659V9.67139H89.6998V7.83954ZM97.8028 3.43318H99.9978V14.1108H97.8028V3.43318ZM87.7689 3.43318H89.9638V14.1108H87.7689V3.43318Z" fill="#404040"/>
<path d="M106.839 14.3088C105.805 14.3088 104.891 14.1438 104.099 13.8137C103.318 13.4836 102.708 13.005 102.267 12.3779C101.827 11.7398 101.607 10.9586 101.607 10.0345C101.607 9.11028 101.827 8.32913 102.267 7.69101C102.708 7.04188 103.318 6.55229 104.099 6.22222C104.891 5.89216 105.805 5.72713 106.839 5.72713C107.873 5.72713 108.775 5.89216 109.545 6.22222C110.327 6.55229 110.937 7.04188 111.377 7.69101C111.817 8.32913 112.037 9.11028 112.037 10.0345C112.037 10.9586 111.817 11.7398 111.377 12.3779C110.937 13.005 110.327 13.4836 109.545 13.8137C108.775 14.1438 107.873 14.3088 106.839 14.3088ZM106.839 12.6585C107.411 12.6585 107.923 12.5595 108.374 12.3614C108.836 12.1524 109.199 11.8553 109.463 11.4702C109.727 11.0742 109.859 10.5956 109.859 10.0345C109.859 9.47335 109.727 8.99476 109.463 8.59868C109.199 8.19161 108.841 7.88355 108.39 7.67451C107.939 7.46547 107.422 7.36095 106.839 7.36095C106.267 7.36095 105.75 7.46547 105.288 7.67451C104.825 7.88355 104.457 8.18611 104.182 8.58218C103.918 8.97826 103.786 9.46235 103.786 10.0345C103.786 10.5956 103.918 11.0742 104.182 11.4702C104.446 11.8553 104.809 12.1524 105.271 12.3614C105.733 12.5595 106.256 12.6585 106.839 12.6585Z" fill="#404040"/>
<path d="M119.35 14.3088C118.624 14.3088 118.002 14.1823 117.485 13.9292C116.979 13.6652 116.566 13.3241 116.247 12.906C115.928 12.4769 115.692 12.0093 115.538 11.5032C115.384 10.9972 115.307 10.5021 115.307 10.018C115.307 9.41284 115.378 8.85173 115.521 8.33463C115.675 7.81753 115.912 7.36645 116.231 6.98137C116.55 6.58529 116.962 6.27724 117.469 6.05719C117.986 5.83715 118.613 5.72713 119.35 5.72713C120.175 5.72713 120.918 5.90866 121.578 6.27173C122.238 6.6348 122.761 7.1409 123.146 7.79003C123.542 8.42815 123.74 9.1708 123.74 10.018C123.74 10.8871 123.542 11.6463 123.146 12.2954C122.75 12.9335 122.222 13.4286 121.561 13.7807C120.901 14.1328 120.164 14.3088 119.35 14.3088ZM118.657 12.642C119.24 12.642 119.746 12.5319 120.175 12.3119C120.615 12.0919 120.951 11.7893 121.182 11.4042C121.424 11.0082 121.545 10.5461 121.545 10.018C121.545 9.22581 121.292 8.58768 120.786 8.10359C120.291 7.6195 119.581 7.37745 118.657 7.37745C118.074 7.37745 117.54 7.48197 117.056 7.69101C116.583 7.90005 116.209 8.20261 115.934 8.59868C115.659 8.98376 115.521 9.45685 115.521 10.018C115.521 10.5461 115.648 11.0082 115.901 11.4042C116.154 11.7893 116.517 12.0919 116.99 12.3119C117.463 12.5319 118.019 12.642 118.657 12.642ZM113.376 5.90866H115.422L115.521 8.08709V17.4114H113.376V5.90866Z" fill="#404040"/>
<path d="M131.045 14.3088C130.319 14.3088 129.697 14.1823 129.18 13.9292C128.674 13.6652 128.261 13.3241 127.942 12.906C127.623 12.4769 127.386 12.0093 127.232 11.5032C127.078 10.9972 127.001 10.5021 127.001 10.018C127.001 9.41284 127.073 8.85173 127.216 8.33463C127.37 7.81753 127.607 7.36645 127.926 6.98137C128.245 6.58529 128.657 6.27724 129.163 6.05719C129.68 5.83715 130.308 5.72713 131.045 5.72713C131.87 5.72713 132.612 5.90866 133.273 6.27173C133.933 6.6348 134.455 7.1409 134.84 7.79003C135.236 8.42815 135.435 9.1708 135.435 10.018C135.435 10.8871 135.236 11.6463 134.84 12.2954C134.444 12.9335 133.916 13.4286 133.256 13.7807C132.596 14.1328 131.859 14.3088 131.045 14.3088ZM130.352 12.642C130.935 12.642 131.441 12.5319 131.87 12.3119C132.31 12.0919 132.645 11.7893 132.877 11.4042C133.119 11.0082 133.24 10.5461 133.24 10.018C133.24 9.22581 132.987 8.58768 132.48 8.10359C131.985 7.6195 131.276 7.37745 130.352 7.37745C129.768 7.37745 129.235 7.48197 128.751 7.69101C128.278 7.90005 127.904 8.20261 127.629 8.59868C127.353 8.98376 127.216 9.45685 127.216 10.018C127.216 10.5461 127.342 11.0082 127.596 11.4042C127.849 11.7893 128.212 12.0919 128.685 12.3119C129.158 12.5319 129.713 12.642 130.352 12.642ZM125.071 5.90866H127.117L127.216 8.08709V17.4114H125.071V5.90866Z" fill="#404040"/>
<path d="M144.241 11.3877H146.321C146.233 11.9488 145.996 12.4494 145.611 12.8895C145.237 13.3296 144.725 13.6762 144.076 13.9292C143.427 14.1823 142.635 14.3088 141.7 14.3088C140.654 14.3088 139.73 14.1438 138.927 13.8137C138.124 13.4726 137.497 12.983 137.046 12.3449C136.595 11.7068 136.369 10.9366 136.369 10.0345C136.369 9.13229 136.589 8.36214 137.029 7.72402C137.469 7.07489 138.08 6.57979 138.861 6.23873C139.653 5.89766 140.577 5.72713 141.634 5.72713C142.712 5.72713 143.609 5.89766 144.324 6.23873C145.039 6.57979 145.567 7.09689 145.908 7.79003C146.26 8.47216 146.409 9.34683 146.354 10.414H138.531C138.586 10.8321 138.74 11.2117 138.993 11.5528C139.257 11.8938 139.609 12.1634 140.049 12.3614C140.5 12.5595 141.034 12.6585 141.65 12.6585C142.332 12.6585 142.899 12.5429 143.35 12.3119C143.812 12.0699 144.109 11.7618 144.241 11.3877ZM141.535 7.36095C140.742 7.36095 140.099 7.53698 139.604 7.88905C139.109 8.23011 138.79 8.6537 138.647 9.15979H144.225C144.17 8.60969 143.906 8.1751 143.433 7.85604C142.97 7.52598 142.338 7.36095 141.535 7.36095Z" fill="#404040"/>
<path d="M147.702 5.90866H149.848V14.1108H147.702V5.90866ZM153 7.67451C152.384 7.67451 151.85 7.79553 151.399 8.03758C150.948 8.26862 150.585 8.55468 150.31 8.89574C150.035 9.23681 149.842 9.56687 149.732 9.88593L149.716 8.97826C149.727 8.84623 149.771 8.6537 149.848 8.40065C149.925 8.1366 150.04 7.85604 150.194 7.55898C150.348 7.25092 150.552 6.95937 150.805 6.68431C151.058 6.39826 151.366 6.16721 151.729 5.99118C152.092 5.81515 152.516 5.72713 153 5.72713V7.67451Z" fill="#404040"/>
<defs>
<linearGradient id="paint0_linear_470_8241" x1="-2.10054e-07" y1="9.99999" x2="28.193" y2="9.99999" gradientUnits="userSpaceOnUse">
<stop stop-color="#4A48FF"/>
<stop offset="1" stop-color="#2996FF"/>
</linearGradient>
<linearGradient id="paint1_linear_470_8241" x1="-2.10054e-07" y1="9.99999" x2="28.193" y2="9.99999" gradientUnits="userSpaceOnUse">
<stop stop-color="#4A48FF"/>
<stop offset="1" stop-color="#2996FF"/>
</linearGradient>
</defs>
</svg>
